<svg data-v-423bf9ae="" xmlns="http://www.w3.org/2000/svg" viewBox="0 0 229.35763133274475 163" class="iconAbove"><!----><!----><!----><g data-v-423bf9ae="" id="710dd376-61fc-4b11-a563-c7f416169efa" fill="white" transform="matrix(5.7526364568010235,0,0,5.7526364568010235,-6.442949703513179,101.33173822471711)"><path d="M5.53 6.33L5.53 6.33L3.29 6.33C3.19 6.33 3.12 6.40 3.12 6.50L3.12 8.50C3.12 8.58 3.19 8.65 3.29 8.65L6.47 8.65C6.55 8.65 6.62 8.58 6.62 8.50C6.62 8.40 6.55 8.33 6.47 8.33L3.44 8.33L3.44 6.65L5.53 6.65C5.63 6.65 5.70 6.58 5.70 6.50C5.70 6.40 5.63 6.33 5.53 6.33ZM6.47 2.34L6.47 2.34L3.29 2.34C3.19 2.34 3.12 2.41 3.12 2.49L3.12 4.49C3.12 4.58 3.19 4.66 3.29 4.66L5.53 4.66C5.63 4.66 5.70 4.58 5.70 4.49C5.70 4.41 5.63 4.33 5.53 4.33L3.44 4.33L3.44 2.66L6.47 2.66C6.55 2.66 6.62 2.59 6.62 2.49C6.62 2.41 6.55 2.34 6.47 2.34ZM6.47 10.33L6.47 10.33L1.44 10.33L1.44 0.66L6.47 0.66C6.55 0.66 6.62 0.59 6.62 0.49C6.62 0.41 6.55 0.34 6.47 0.34L1.29 0.34C1.19 0.34 1.12 0.41 1.12 0.49L1.12 10.50C1.12 10.58 1.19 10.65 1.29 10.65L6.47 10.65C6.55 10.65 6.62 10.58 6.62 10.50C6.62 10.40 6.55 10.33 6.47 10.33ZM12.39 5.82C12.47 5.82 12.54 5.74 12.54 5.66C12.54 5.57 12.47 5.50 12.39 5.50L8.57 5.50C8.48 5.50 8.40 5.57 8.40 5.66C8.40 5.74 8.48 5.82 8.57 5.82ZM19.68 10.50L19.68 10.50L19.68 6.50C19.68 6.40 19.61 6.33 19.52 6.33L16.52 6.33C16.44 6.33 16.35 6.40 16.35 6.50L16.35 10.50C16.35 10.58 16.44 10.65 16.52 10.65C16.60 10.65 16.69 10.58 16.69 10.50L16.69 6.65L19.36 6.65L19.36 10.50C19.36 10.58 19.43 10.65 19.52 10.65C19.61 10.65 19.68 10.58 19.68 10.50ZM16.35 0.49L16.35 0.49L16.35 4.49C16.35 4.58 16.44 4.66 16.52 4.66L19.52 4.66C19.61 4.66 19.68 4.58 19.68 4.49L19.68 0.49C19.68 0.41 19.61 0.34 19.52 0.34C19.43 0.34 19.36 0.41 19.36 0.49L19.36 4.33L16.69 4.33L16.69 0.49C16.69 0.41 16.60 0.34 16.52 0.34C16.44 0.34 16.35 0.41 16.35 0.49ZM21.36 0.49L21.36 0.49L21.36 10.50C21.36 10.58 21.43 10.65 21.52 10.65C21.62 10.65 21.69 10.58 21.69 10.50L21.69 0.49C21.69 0.41 21.62 0.34 21.52 0.34C21.43 0.34 21.36 0.41 21.36 0.49ZM14.69 10.50L14.69 10.50L14.69 0.49C14.69 0.41 14.62 0.34 14.52 0.34C14.43 0.34 14.36 0.41 14.36 0.49L14.36 10.50C14.36 10.58 14.43 10.65 14.52 10.65C14.62 10.65 14.69 10.58 14.69 10.50ZM25.91 6.85L25.91 6.85C25.91 7.91 26.66 8.67 27.71 8.67C28.76 8.67 29.51 7.91 29.51 6.85L29.51 0.50C29.51 0.42 29.44 0.35 29.34 0.35C29.26 0.35 29.19 0.42 29.19 0.50L29.19 6.85C29.19 7.73 28.59 8.36 27.71 8.36C26.84 8.36 26.22 7.73 26.22 6.85L26.22 0.50C26.22 0.42 26.15 0.35 26.07 0.35C25.98 0.35 25.91 0.42 25.91 0.50ZM31.21 0.50L31.21 0.50L31.21 6.96C31.21 9.06 29.65 10.40 27.71 10.40C25.68 10.40 24.21 9.00 24.21 6.96L24.21 0.50C24.21 0.42 24.14 0.35 24.05 0.35C23.95 0.35 23.88 0.42 23.88 0.50L23.88 6.96C23.88 9.17 25.51 10.72 27.71 10.72C29.85 10.72 31.53 9.24 31.53 6.96L31.53 0.50C31.53 0.42 31.46 0.35 31.37 0.35C31.28 0.35 31.21 0.42 31.21 0.50ZM37.67 8.67L37.67 8.67C38.35 8.67 38.88 8.16 38.88 7.49C38.88 6.83 38.35 6.34 37.67 6.34L35.92 6.34C35.83 6.34 35.74 6.41 35.74 6.50C35.74 6.58 35.83 6.65 35.92 6.65L37.67 6.65C38.15 6.65 38.54 7 38.54 7.49C38.54 7.98 38.15 8.33 37.67 8.33L37.10 8.33C37.02 8.33 36.95 8.41 36.95 8.50C36.95 8.58 37.02 8.67 37.10 8.67ZM35.92 2.65L35.92 2.65L37.67 2.65C38.15 2.65 38.54 3.00 38.54 3.49C38.54 3.98 38.15 4.33 37.67 4.33L37.10 4.33C37.02 4.33 36.95 4.40 36.95 4.49C36.95 4.58 37.02 4.65 37.10 4.65L37.67 4.65C38.35 4.65 38.88 4.14 38.88 3.49C38.88 2.83 38.35 2.32 37.67 2.32L35.92 2.32C35.81 2.32 35.74 2.39 35.74 2.48C35.74 2.56 35.81 2.65 35.92 2.65ZM34.08 10.50L34.08 10.50L34.08 0.63L37.86 0.63C39.42 0.63 40.66 1.92 40.66 3.49C40.66 4.19 40.42 4.86 39.96 5.39C39.90 5.45 39.90 5.54 39.96 5.60C40.42 6.13 40.66 6.79 40.66 7.49C40.66 9.04 39.42 10.35 37.86 10.35L35.92 10.35C35.83 10.35 35.76 10.42 35.76 10.50C35.76 10.61 35.83 10.68 35.92 10.68L37.86 10.68C39.61 10.68 40.99 9.24 40.99 7.49C40.99 6.76 40.74 6.06 40.29 5.49C40.74 4.93 40.99 4.21 40.99 3.49C40.99 1.74 39.61 0.29 37.86 0.29L33.89 0.29C33.81 0.29 33.74 0.38 33.74 0.48L33.74 10.50C33.74 10.61 33.81 10.68 33.89 10.68C33.99 10.68 34.08 10.61 34.08 10.50Z"></path></g><!----><g data-v-423bf9ae="" id="c61b950a-4eb4-4852-a197-181fe30a9473" transform="matrix(2.8125,0,0,2.8125,70,0)" stroke="none" fill="white"><path d="M15.965 16.258l.707-.707 10.39 10.39-.707.707z"></path><path d="M4.935 26.357L26.018 5.274l.707.707L5.642 27.065z"></path><path d="M31 1v4.194h-4.194V1H31m1-1h-6.194v6.194H32V0zM31 26.806V31h-4.194v-4.194H31m1-1h-6.194V32H32v-6.194zM5.194 26.806V31H1v-4.194h4.194m1-1H0V32h6.194v-6.194z"></path></g><!----></svg>